<svg xmlns="http://www.w3.org/2000/svg" viewBox="0 0 109.23 78.38"><defs><style>.cls-1{fill:#322616;}</style></defs><title>velez-logo</title><g id="Capa_2" data-name="Capa 2"><g id="Capa_1-2" data-name="Capa 1"><path class="cls-1" d="M42.23,36.13q1.5,0,3-3c1-2,2-5,0-5s-2.55,3.11-3,4C41.23,34.13,41.23,36.13,42.23,36.13Z"/><path class="cls-1" d="M103.23,29.13c-2,1-6,2-6.5-.5-.78-3.92-.5-6.5-.5-9.5,0-2.55-3.5-2.5-4,0a38.71,38.71,0,0,1-4.5,10.5c-2.5,3.5-7.5,8.5-12,10-1.34.45-2.5.5-1.5-2.5s3.89-4.92,1.5-8.5c-2-3-7,0-7,6s-.84,5.37-2,7c-2.5,3.5-7,3-8,1s-.65-9.27-.5-11.5c.5-7.5,5.5-21.5,6.5-24.5.81-2.42,3-6,1.5-6.5-2.77-.92-4.2,3.21-5.5,6.5-1.8,4.57-9.25,28.21-9,28l-3.5,9.5s-4.5,8.5-6,8,1-4,1.5-6.5-1-7-3.5-5.5c-2.19,1.31-4,5-4.5,7.5s-.47,6-2,8c-3,4-7,7-8,5-.45-.89.5-5.5,1.5-8.5s5.5-15.5,6.5-17.5,4-6,1.5-6.5-6,8-7.5,11.5-8,30-8.5,31.5a3.85,3.85,0,0,1-4,3c-2,0-5-2.54-5.75-4.52s-5-18.86-5.75-21c-1-3-4.69-5.46-3.5.5,1.5,7.5,4.33,20.64,8.5,25.5,6,7,11.5,2.5,13,0s3-11,3-11,4,1,7-1c2.63-1.75,5.5-6.5,5.5-6.5s3,4,7-1,8-12,9-15,2.87,3.24,3.5,4.5a5.7,5.7,0,0,0,6,3c2.5-.5,6.5-4.5,6.5-4.5s2,2,7,0,14.5-9.5,16-16c.17-.72.9-.84,1,0,.19,1.66,0,5,2,6,3.58,1.79,6,0,7,3,.71,2.12,2,5,2,8s.1,17.19,0,21c-.13,4.69-1,13,0,13s2-1,2.76-6.25c1.67-11.6,2.24-32.75,2.24-32.75C109.23,31.13,105.23,28.13,103.23,29.13ZM40.59,47.45q-.84,1.68-1.68,1.68c-.56,0-.56-1.12,0-2.24.25-.5.56-2.24,1.68-2.24S41.15,46.33,40.59,47.45Zm32-13q-.84,1.68-1.68,1.68c-.56,0-.56-1.12,0-2.24.25-.5.56-2.24,1.68-2.24S73.15,33.33,72.59,34.45Z"/></g></g></svg>